<svg width="187" height="80" viewBox="0 0 187 80" fill="none" xmlns="http://www.w3.org/2000/svg">
<path d="M148.362 47.6005C145.352 44.6956 139.482 40.8427 136.923 39.2793C136.02 43.7677 133.973 53.0471 133.01 54.2574C133.491 54.0154 145.853 61.3178 151.974 64.9993L159.5 59.0988C157.945 58.2919 154.352 56.1032 152.426 53.8035C150.018 50.9289 152.125 51.2315 148.362 47.6005Z" stroke="#1C4633" stroke-width="3"/>
<path d="M122.022 60.0073C126.598 59.8863 131.154 56.5276 132.859 54.8633C135.167 47.3995 138.759 30.5049 134.665 22.6376C129.548 12.8035 130.15 16.4346 120.216 7.81082C107.573 3.272 106.52 3.72588 92.5218 4.48235C79.7282 8.56729 77.621 13.2574 70.6974 19.7631C63.7738 26.2687 63.0212 34.2873 61.0646 44.424C62.4192 54.712 61.6666 52.4426 66.0315 58.6457C70.9683 61.6716 82.7384 59.9065 88.0064 58.6457C97.4386 59.15 117.447 60.1284 122.022 60.0073Z" stroke="#1C4633" stroke-width="3"/>
<path d="M139.331 35.1953C141.74 38.1203 146.526 44.3335 146.405 45.7859" stroke="#1C4633" stroke-width="2"/>
<path d="M60.7634 44.4238C51.532 50.0721 31.9552 61.1872 27.5 60.461C45.1101 62.7304 62.8706 54.7118 62.8706 54.258C62.8706 53.8948 61.4658 47.5506 60.7634 44.4238Z" stroke="#1C4633" stroke-width="2"/>
<path d="M141.89 52.1394C142.643 51.6855 143.997 49.2648 143.847 47.298C143.445 47.2476 142.492 47.298 141.89 47.9032C141.138 48.6596 140.686 51.2316 140.686 51.6855C140.536 51.8368 141.138 52.5933 141.89 52.1394Z" stroke="#1C4633" stroke-width="2"/>
<path d="M142.586 29.2949C143.188 29.537 138.823 36.0527 136.566 39.2803V32.6234C138.322 31.6652 141.984 29.658 142.586 29.2949Z" stroke="#1C4633" stroke-width="2"/>
<path d="M75.2129 60.158C71.3999 52.1133 63.7739 35.1014 63.7739 31.4121" stroke="#1C4633" stroke-width="2"/>
<path d="M83.3403 59.554C78.4236 52.2919 68.3191 34.9536 67.2354 23.6973" stroke="#1C4633" stroke-width="2"/>
<path d="M88.1567 58.6452C82.1864 49.265 70.3661 28.3259 70.8477 19.6113" stroke="#1C4633" stroke-width="2"/>
<path d="M71.1489 60.0075C68.1387 55.4687 62.0579 45.3319 61.8171 41.0957" stroke="#1C4633" stroke-width="2"/>
<path d="M92.3711 58.9481C86.7519 47.1976 76.5371 20.9733 80.6311 10.0801" stroke="#1C4633" stroke-width="2"/>
<path d="M145.954 45.029L138.729 36.2539" stroke="#1C4633"/>
<path d="M58.656 45.7852C59.6092 48.5085 61.7265 54.0156 62.5693 54.2576" stroke="#1C4633"/>
<path d="M56.5489 47.1465C58.2547 49.6176 61.8169 54.5296 62.4189 54.4086" stroke="#1C4633"/>
<path d="M54.1408 48.3574C56.4487 50.3747 61.3053 54.4394 62.2686 54.5605" stroke="#1C4633"/>
<path d="M52.1839 49.7188C54.843 51.4334 60.5224 54.8022 61.9673 54.5602" stroke="#1C4633"/>
<path d="M50.077 50.627C53.3381 52.2408 60.2216 55.3171 61.6665 54.7119" stroke="#1C4633"/>
<path d="M48.4212 51.6855C52.2844 52.9463 60.2516 55.3771 61.2148 55.014" stroke="#1C4633"/>
<path d="M46.4644 52.7461C53.9901 54.4103 60.0106 55.3181 60.7632 55.3181" stroke="#1C4633"/>
<path d="M44.3575 53.9551C49.6255 54.5603 60.2216 55.7101 60.4624 55.468" stroke="#1C4633"/>
<path d="M42.4006 55.0137C47.8191 55.2658 58.8366 55.7701 59.5591 55.7701" stroke="#1C4633"/>
<path d="M40.7451 55.7715L57.6025 56.528" stroke="#1C4633"/>
<path d="M39.0896 56.5273C47.9698 57.889 53.8398 57.7377 54.4419 57.7377" stroke="#1C4633"/>
<path d="M37.5843 57.2832C39.4908 58.1405 44.237 59.7342 47.9697 59.25" stroke="#1C4633"/>
<path d="M35.3266 58.3438C36.3802 59.0498 39.1798 60.4316 41.9492 60.3106" stroke="#1C4633"/>
<path d="M33.3699 58.9473C33.9217 59.4011 35.3566 60.3997 36.6812 60.7628" stroke="#1C4633"/>
<path d="M53.48 76V67.84C53.36 67.84 53.112 67.864 52.736 67.912L50.384 68.212V67.6H57.392V68.212L55.04 67.912C54.664 67.864 54.416 67.84 54.296 67.84V76H53.48ZM57.3784 76L60.6064 67.6H61.3504L64.5784 76H63.7024L62.2144 72.064H59.4904L58.2544 76H57.3784ZM60.6904 68.224L59.5744 71.776H62.1064L60.7624 68.224H60.6904ZM67.73 76V67.84C67.61 67.84 67.362 67.864 66.986 67.912L64.634 68.212V67.6H71.642V68.212L69.29 67.912C68.914 67.864 68.666 67.84 68.546 67.84V76H67.73ZM73.4713 67.6H74.2873V72.664C74.2873 73.632 74.5233 74.388 74.9953 74.932C75.4753 75.468 76.1473 75.736 77.0113 75.736C77.5553 75.736 78.0273 75.632 78.4273 75.424C78.8353 75.208 79.1473 74.912 79.3633 74.536C79.5873 74.16 79.6913 73.728 79.6753 73.24L79.4713 67.6H80.2873L80.0833 73.24C80.0513 74.2 79.7633 74.928 79.2193 75.424C78.6833 75.92 77.9153 76.168 76.9153 76.168C75.8353 76.168 74.9913 75.856 74.3833 75.232C73.7753 74.6 73.4713 73.736 73.4713 72.64V67.6ZM83.1655 76V67.6H85.8055C86.7335 67.6 87.5415 67.776 88.2295 68.128C88.9175 68.48 89.4535 68.972 89.8375 69.604C90.2215 70.228 90.4135 70.96 90.4135 71.8C90.4135 72.64 90.2215 73.376 89.8375 74.008C89.4535 74.632 88.9175 75.12 88.2295 75.472C87.5415 75.824 86.7335 76 85.8055 76H83.1655ZM85.8055 67.888H83.9815V75.712H85.8055C86.9655 75.712 87.8695 75.368 88.5175 74.68C89.1735 73.992 89.5015 73.032 89.5015 71.8C89.5015 70.568 89.1735 69.608 88.5175 68.92C87.8695 68.232 86.9655 67.888 85.8055 67.888ZM92.3389 71.8C92.3389 71.184 92.4469 70.612 92.6629 70.084C92.8869 69.548 93.1949 69.084 93.5869 68.692C93.9869 68.292 94.4509 67.984 94.9789 67.768C95.5149 67.544 96.0909 67.432 96.7069 67.432C97.3229 67.432 97.8949 67.544 98.4229 67.768C98.9589 67.984 99.4229 68.292 99.8149 68.692C100.215 69.084 100.523 69.548 100.739 70.084C100.963 70.612 101.075 71.184 101.075 71.8C101.075 72.416 100.963 72.992 100.739 73.528C100.523 74.056 100.215 74.52 99.8149 74.92C99.4229 75.312 98.9589 75.62 98.4229 75.844C97.8949 76.06 97.3229 76.168 96.7069 76.168C96.0909 76.168 95.5149 76.06 94.9789 75.844C94.4509 75.62 93.9869 75.312 93.5869 74.92C93.1949 74.52 92.8869 74.056 92.6629 73.528C92.4469 72.992 92.3389 72.416 92.3389 71.8ZM93.2509 71.8C93.2509 72.616 93.3949 73.332 93.6829 73.948C93.9709 74.556 94.3749 75.032 94.8949 75.376C95.4149 75.712 96.0189 75.88 96.7069 75.88C97.3949 75.88 97.9989 75.712 98.5189 75.376C99.0389 75.032 99.4429 74.552 99.7309 73.936C100.019 73.32 100.163 72.608 100.163 71.8C100.163 70.992 100.019 70.284 99.7309 69.676C99.4429 69.06 99.0389 68.58 98.5189 68.236C97.9989 67.892 97.3949 67.72 96.7069 67.72C96.0189 67.72 95.4149 67.892 94.8949 68.236C94.3829 68.572 93.9789 69.048 93.6829 69.664C93.3949 70.272 93.2509 70.984 93.2509 71.8ZM103.591 76V67.6H107.119V68.188L105.127 67.912C104.767 67.864 104.527 67.84 104.407 67.84V71.596C104.535 71.596 104.783 71.584 105.151 71.56L106.987 71.44V71.992L105.151 71.872C104.783 71.848 104.535 71.836 104.407 71.836V76H103.591ZM109.462 76V67.6H113.122V68.188L111.022 67.912C110.654 67.864 110.406 67.84 110.278 67.84V71.5C110.382 71.5 110.63 71.488 111.022 71.464L112.99 71.344V71.896L111.022 71.776C110.63 71.752 110.382 71.74 110.278 71.74V75.76C110.422 75.76 110.674 75.736 111.034 75.688L113.158 75.412V76H109.462ZM115.673 76V67.6H116.489V76H115.673ZM121.531 76V67.84C121.411 67.84 121.163 67.864 120.787 67.912L118.435 68.212V67.6H125.443V68.212L123.091 67.912C122.715 67.864 122.467 67.84 122.347 67.84V76H121.531ZM126.429 71.8C126.429 71.184 126.537 70.612 126.753 70.084C126.977 69.548 127.285 69.084 127.677 68.692C128.077 68.292 128.541 67.984 129.069 67.768C129.605 67.544 130.181 67.432 130.797 67.432C131.413 67.432 131.985 67.544 132.513 67.768C133.049 67.984 133.513 68.292 133.905 68.692C134.305 69.084 134.613 69.548 134.829 70.084C135.053 70.612 135.165 71.184 135.165 71.8C135.165 72.416 135.053 72.992 134.829 73.528C134.613 74.056 134.305 74.52 133.905 74.92C133.513 75.312 133.049 75.62 132.513 75.844C131.985 76.06 131.413 76.168 130.797 76.168C130.181 76.168 129.605 76.06 129.069 75.844C128.541 75.62 128.077 75.312 127.677 74.92C127.285 74.52 126.977 74.056 126.753 73.528C126.537 72.992 126.429 72.416 126.429 71.8ZM127.341 71.8C127.341 72.616 127.485 73.332 127.773 73.948C128.061 74.556 128.465 75.032 128.985 75.376C129.505 75.712 130.109 75.88 130.797 75.88C131.485 75.88 132.089 75.712 132.609 75.376C133.129 75.032 133.533 74.552 133.821 73.936C134.109 73.32 134.253 72.608 134.253 71.8C134.253 70.992 134.109 70.284 133.821 69.676C133.533 69.06 133.129 68.58 132.609 68.236C132.089 67.892 131.485 67.72 130.797 67.72C130.109 67.72 129.505 67.892 128.985 68.236C128.473 68.572 128.069 69.048 127.773 69.664C127.485 70.272 127.341 70.984 127.341 71.8Z" fill="#1C4633"/>
</svg>
